<svg width="30" height="30" viewBox="0 0 30 30" fill="none" xmlns="http://www.w3.org/2000/svg">
<g id="weui:eyes-off-filled">
<path id="Vector" fill-rule="evenodd" clip-rule="evenodd" d="M23.6525 21L27.615 24.9625L26.29 26.2887L5.075 5.07625L6.4 3.75L9.825 7.1725C11.4816 6.56023 13.2339 6.24785 15 6.25C21.01 6.25 26.215 9.81 28.75 15C27.5834 17.3975 25.83 19.4614 23.6525 21ZM13.53 10.8787L19.1213 16.47C19.4002 15.6898 19.4519 14.8464 19.2702 14.038C19.0886 13.2296 18.6811 12.4894 18.0952 11.9035C17.5093 11.3176 16.7691 10.9102 15.9607 10.7285C15.1523 10.5469 14.3089 10.5986 13.5287 10.8775L13.53 10.8787ZM20.1763 22.8288C18.5192 23.4407 16.7664 23.7527 15 23.75C8.99 23.75 3.785 20.19 1.25 15C2.41659 12.6025 4.17002 10.5386 6.3475 9L10.8787 13.53C10.5998 14.3102 10.5481 15.1536 10.7298 15.962C10.9114 16.7704 11.3189 17.5106 11.9048 18.0965C12.4907 18.6824 13.2309 19.0898 14.0393 19.2715C14.8477 19.4531 15.6911 19.4014 16.4713 19.1225L20.1763 22.8275V22.8288Z" fill="#3B82F6"/>
</g>
</svg>
