<svg width="17" height="21" viewBox="0 0 17 21" fill="none" xmlns="http://www.w3.org/2000/svg">
<path id="Vector" d="M2.10496 21C1.52609 21 1.03073 20.8043 0.618857 20.413C0.206987 20.0217 0.000701652 19.5507 0 19V9C0 8.45 0.206286 7.97933 0.618857 7.588C1.03143 7.19667 1.5268 7.00067 2.10496 7H3.15743V5C3.15743 3.61667 3.67069 2.43767 4.69721 1.463C5.72373 0.488334 6.9646 0.000667349 8.41983 6.82594e-07C9.87505 -0.000665984 11.1163 0.487001 12.1435 1.463C13.1707 2.439 13.6836 3.618 13.6822 5V7H14.7347C15.3136 7 15.8093 7.196 16.2218 7.588C16.6344 7.98 16.8404 8.45067 16.8397 9V19C16.8397 19.55 16.6337 20.021 16.2218 20.413C15.81 20.805 15.3143 21.0007 14.7347 21H2.10496ZM8.41983 16C8.99869 16 9.49441 15.8043 9.90698 15.413C10.3195 15.0217 10.5255 14.5507 10.5248 14C10.5241 13.4493 10.3181 12.9787 9.90698 12.588C9.49581 12.1973 9.00009 12.0013 8.41983 12C7.83956 11.9987 7.34419 12.1947 6.93373 12.588C6.52326 12.9813 6.31697 13.452 6.31487 14C6.31276 14.548 6.51905 15.019 6.93373 15.413C7.3484 15.807 7.84377 16.0027 8.41983 16ZM5.26239 7H11.5773V5C11.5773 4.16667 11.2703 3.45833 10.6563 2.875C10.0424 2.29167 9.29689 2 8.41983 2C7.54276 2 6.79726 2.29167 6.18331 2.875C5.56936 3.45833 5.26239 4.16667 5.26239 5V7Z" fill="#3B82F6"/>
</svg>
